<mxfile host="app.diagrams.net" modified="2024-05-29T02:23:11.758Z" agent="Mozilla/5.0 (Windows NT 10.0; Win64; x64) AppleWebKit/537.36 (KHTML, like Gecko) Chrome/125.0.0.0 Safari/537.36" etag="GnO7e5kwffDmQ7vU5WTc" version="24.4.9" type="github">
  <diagram name="第 1 页" id="-5ZDSn6iOt7gDkgcBdYf">
    <mxGraphModel dx="1687" dy="2158" grid="1" gridSize="10" guides="1" tooltips="1" connect="1" arrows="1" fold="1" page="1" pageScale="1" pageWidth="827" pageHeight="1169" background="#ffffff" math="0" shadow="0">
      <root>
        <mxCell id="0" />
        <mxCell id="1" parent="0" />
        <mxCell id="bsJ_sNEBP9lTQ6pW_iyW-12" value="" style="shape=link;html=1;rounded=0;" parent="1" edge="1">
          <mxGeometry width="100" relative="1" as="geometry">
            <mxPoint x="80" y="370" as="sourcePoint" />
            <mxPoint x="750" y="370" as="targetPoint" />
          </mxGeometry>
        </mxCell>
        <mxCell id="bsJ_sNEBP9lTQ6pW_iyW-13" value="&lt;font style=&quot;font-size: 20px;&quot;&gt;DMZ&lt;/font&gt;" style="text;html=1;align=center;verticalAlign=middle;whiteSpace=wrap;rounded=0;fillColor=#d5e8d4;strokeColor=#82b366;" parent="1" vertex="1">
          <mxGeometry x="637.5" y="-50" width="90" height="30" as="geometry" />
        </mxCell>
        <mxCell id="bsJ_sNEBP9lTQ6pW_iyW-14" value="&lt;font style=&quot;font-size: 20px;&quot;&gt;内网&lt;/font&gt;" style="text;html=1;align=center;verticalAlign=middle;whiteSpace=wrap;rounded=0;fillColor=#d5e8d4;strokeColor=#82b366;" parent="1" vertex="1">
          <mxGeometry x="630" y="400" width="90" height="40" as="geometry" />
        </mxCell>
        <mxCell id="bsJ_sNEBP9lTQ6pW_iyW-15" value="&lt;font style=&quot;font-size: 20px;&quot;&gt;内网防火墙&lt;/font&gt;" style="image;aspect=fixed;perimeter=ellipsePerimeter;html=1;align=center;shadow=0;dashed=0;fontColor=#4277BB;labelBackgroundColor=default;fontSize=12;spacingTop=3;image=img/lib/ibm/security/firewall.svg;" parent="1" vertex="1">
          <mxGeometry x="190" y="340" width="60" height="60" as="geometry" />
        </mxCell>
        <mxCell id="bsJ_sNEBP9lTQ6pW_iyW-20" value="亦庄服务集群" style="shape=mxgraph.ibm.box;prType=cloud;fontStyle=0;verticalAlign=top;align=left;spacingLeft=32;spacingTop=4;fillColor=none;rounded=0;whiteSpace=wrap;html=1;strokeColor=#4376BB;strokeWidth=3;dashed=0;container=1;spacing=-4;collapsible=0;expand=0;recursiveResize=0;" parent="1" vertex="1">
          <mxGeometry x="75" y="140" width="290" height="120" as="geometry" />
        </mxCell>
        <mxCell id="CX1JSErlSpLftbo7QJSL-2" value="" style="edgeStyle=orthogonalEdgeStyle;rounded=0;orthogonalLoop=1;jettySize=auto;html=1;" parent="bsJ_sNEBP9lTQ6pW_iyW-20" source="bsJ_sNEBP9lTQ6pW_iyW-22" target="CX1JSErlSpLftbo7QJSL-1" edge="1">
          <mxGeometry relative="1" as="geometry" />
        </mxCell>
        <mxCell id="CX1JSErlSpLftbo7QJSL-3" value="代理" style="edgeLabel;html=1;align=center;verticalAlign=middle;resizable=0;points=[];" parent="CX1JSErlSpLftbo7QJSL-2" vertex="1" connectable="0">
          <mxGeometry x="-0.1486" y="1" relative="1" as="geometry">
            <mxPoint as="offset" />
          </mxGeometry>
        </mxCell>
        <mxCell id="bsJ_sNEBP9lTQ6pW_iyW-22" value="网上出单前端服务" style="image;aspect=fixed;perimeter=ellipsePerimeter;html=1;align=center;shadow=0;dashed=0;fontColor=#4277BB;labelBackgroundColor=default;fontSize=12;spacingTop=3;image=img/lib/ibm/applications/saas_applications.svg;" parent="bsJ_sNEBP9lTQ6pW_iyW-20" vertex="1">
          <mxGeometry x="45" y="30" width="60" height="60" as="geometry" />
        </mxCell>
        <mxCell id="CX1JSErlSpLftbo7QJSL-1" value="微服务网关" style="image;aspect=fixed;perimeter=ellipsePerimeter;html=1;align=center;shadow=0;dashed=0;fontColor=#4277BB;labelBackgroundColor=default;fontSize=12;spacingTop=3;image=img/lib/ibm/applications/saas_applications.svg;" parent="bsJ_sNEBP9lTQ6pW_iyW-20" vertex="1">
          <mxGeometry x="175" y="30" width="60" height="60" as="geometry" />
        </mxCell>
        <mxCell id="bsJ_sNEBP9lTQ6pW_iyW-24" value="" style="endArrow=none;dashed=1;html=1;rounded=0;strokeWidth=2;" parent="1" edge="1">
          <mxGeometry width="50" height="50" relative="1" as="geometry">
            <mxPoint x="780" y="110" as="sourcePoint" />
            <mxPoint x="780" y="110" as="targetPoint" />
            <Array as="points">
              <mxPoint x="40" y="110" />
              <mxPoint x="40" y="310" />
              <mxPoint x="780" y="310" />
            </Array>
          </mxGeometry>
        </mxCell>
        <mxCell id="bsJ_sNEBP9lTQ6pW_iyW-26" value="&lt;font style=&quot;font-size: 20px;&quot;&gt;APP容器资源池&lt;/font&gt;" style="edgeLabel;html=1;align=center;verticalAlign=middle;resizable=0;points=[];" parent="bsJ_sNEBP9lTQ6pW_iyW-24" vertex="1" connectable="0">
          <mxGeometry x="-0.5936" y="-2" relative="1" as="geometry">
            <mxPoint as="offset" />
          </mxGeometry>
        </mxCell>
        <mxCell id="CX1JSErlSpLftbo7QJSL-9" style="edgeStyle=orthogonalEdgeStyle;rounded=0;orthogonalLoop=1;jettySize=auto;html=1;" parent="1" source="bsJ_sNEBP9lTQ6pW_iyW-28" edge="1">
          <mxGeometry relative="1" as="geometry">
            <mxPoint x="620" y="130" as="targetPoint" />
          </mxGeometry>
        </mxCell>
        <mxCell id="CX1JSErlSpLftbo7QJSL-10" value="&lt;font style=&quot;font-size: 20px;&quot;&gt;代理&lt;/font&gt;" style="edgeLabel;html=1;align=center;verticalAlign=middle;resizable=0;points=[];" parent="CX1JSErlSpLftbo7QJSL-9" vertex="1" connectable="0">
          <mxGeometry x="0.7659" y="4" relative="1" as="geometry">
            <mxPoint as="offset" />
          </mxGeometry>
        </mxCell>
        <mxCell id="bsJ_sNEBP9lTQ6pW_iyW-28" value="&lt;font style=&quot;font-size: 20px;&quot;&gt;容器负载&lt;/font&gt;" style="image;aspect=fixed;perimeter=ellipsePerimeter;html=1;align=center;shadow=0;dashed=0;fontColor=#4277BB;labelBackgroundColor=default;fontSize=12;spacingTop=3;image=img/lib/ibm/infrastructure/load_balancing_routing.svg;" parent="1" vertex="1">
          <mxGeometry x="140" y="-40" width="60" height="60" as="geometry" />
        </mxCell>
        <mxCell id="bsJ_sNEBP9lTQ6pW_iyW-31" style="edgeStyle=orthogonalEdgeStyle;rounded=0;orthogonalLoop=1;jettySize=auto;html=1;entryX=0.407;entryY=0;entryDx=0;entryDy=0;entryPerimeter=0;" parent="1" source="bsJ_sNEBP9lTQ6pW_iyW-28" target="bsJ_sNEBP9lTQ6pW_iyW-20" edge="1">
          <mxGeometry relative="1" as="geometry" />
        </mxCell>
        <mxCell id="bsJ_sNEBP9lTQ6pW_iyW-32" value="&lt;font style=&quot;font-size: 20px;&quot;&gt;代理&lt;/font&gt;" style="edgeLabel;html=1;align=center;verticalAlign=middle;resizable=0;points=[];" parent="bsJ_sNEBP9lTQ6pW_iyW-31" vertex="1" connectable="0">
          <mxGeometry x="-0.2195" y="-2" relative="1" as="geometry">
            <mxPoint x="22" y="6" as="offset" />
          </mxGeometry>
        </mxCell>
        <mxCell id="bsJ_sNEBP9lTQ6pW_iyW-33" value="" style="endArrow=none;dashed=1;html=1;rounded=0;strokeWidth=2;" parent="1" edge="1">
          <mxGeometry width="50" height="50" relative="1" as="geometry">
            <mxPoint x="790" y="500" as="sourcePoint" />
            <mxPoint x="790" y="500" as="targetPoint" />
            <Array as="points">
              <mxPoint x="50" y="500" />
              <mxPoint x="50" y="700" />
              <mxPoint x="790" y="700" />
            </Array>
          </mxGeometry>
        </mxCell>
        <mxCell id="bsJ_sNEBP9lTQ6pW_iyW-34" value="&lt;font style=&quot;font-size: 20px;&quot;&gt;信创容器资源池&lt;/font&gt;" style="edgeLabel;html=1;align=center;verticalAlign=middle;resizable=0;points=[];" parent="bsJ_sNEBP9lTQ6pW_iyW-33" vertex="1" connectable="0">
          <mxGeometry x="-0.5936" y="-2" relative="1" as="geometry">
            <mxPoint as="offset" />
          </mxGeometry>
        </mxCell>
        <mxCell id="bsJ_sNEBP9lTQ6pW_iyW-35" value="亦庄后端集群" style="shape=mxgraph.ibm.box;prType=cloud;fontStyle=0;verticalAlign=top;align=left;spacingLeft=32;spacingTop=4;fillColor=none;rounded=0;whiteSpace=wrap;html=1;strokeColor=#4376BB;strokeWidth=3;dashed=0;container=1;spacing=-4;collapsible=0;expand=0;recursiveResize=0;" parent="1" vertex="1">
          <mxGeometry x="85" y="550" width="185" height="120" as="geometry" />
        </mxCell>
        <mxCell id="bsJ_sNEBP9lTQ6pW_iyW-36" value="网上出单后端服务" style="image;aspect=fixed;perimeter=ellipsePerimeter;html=1;align=center;shadow=0;dashed=0;fontColor=#4277BB;labelBackgroundColor=default;fontSize=12;spacingTop=3;image=img/lib/ibm/applications/saas_applications.svg;" parent="bsJ_sNEBP9lTQ6pW_iyW-35" vertex="1">
          <mxGeometry x="45" y="30" width="60" height="60" as="geometry" />
        </mxCell>
        <mxCell id="bsJ_sNEBP9lTQ6pW_iyW-41" value="通州后端集群" style="shape=mxgraph.ibm.box;prType=cloud;fontStyle=0;verticalAlign=top;align=left;spacingLeft=32;spacingTop=4;fillColor=none;rounded=0;whiteSpace=wrap;html=1;strokeColor=#4376BB;strokeWidth=3;dashed=0;container=1;spacing=-4;collapsible=0;expand=0;recursiveResize=0;" parent="1" vertex="1">
          <mxGeometry x="590" y="540" width="185" height="120" as="geometry" />
        </mxCell>
        <mxCell id="bsJ_sNEBP9lTQ6pW_iyW-42" value="网上出单后端服务" style="image;aspect=fixed;perimeter=ellipsePerimeter;html=1;align=center;shadow=0;dashed=0;fontColor=#4277BB;labelBackgroundColor=default;fontSize=12;spacingTop=3;image=img/lib/ibm/applications/saas_applications.svg;" parent="bsJ_sNEBP9lTQ6pW_iyW-41" vertex="1">
          <mxGeometry x="45" y="30" width="60" height="60" as="geometry" />
        </mxCell>
        <mxCell id="bsJ_sNEBP9lTQ6pW_iyW-46" value="" style="shape=link;html=1;rounded=0;" parent="1" edge="1">
          <mxGeometry width="100" relative="1" as="geometry">
            <mxPoint x="30" y="-130.5" as="sourcePoint" />
            <mxPoint x="810" y="-130.5" as="targetPoint" />
          </mxGeometry>
        </mxCell>
        <mxCell id="bsJ_sNEBP9lTQ6pW_iyW-47" value="&lt;font style=&quot;font-size: 20px;&quot;&gt;公网&lt;/font&gt;" style="text;html=1;align=center;verticalAlign=middle;whiteSpace=wrap;rounded=0;fillColor=#d5e8d4;strokeColor=#82b366;" parent="1" vertex="1">
          <mxGeometry x="630" y="-190" width="90" height="30" as="geometry" />
        </mxCell>
        <mxCell id="bsJ_sNEBP9lTQ6pW_iyW-52" style="edgeStyle=orthogonalEdgeStyle;rounded=0;orthogonalLoop=1;jettySize=auto;html=1;" parent="1" source="bsJ_sNEBP9lTQ6pW_iyW-48" target="bsJ_sNEBP9lTQ6pW_iyW-50" edge="1">
          <mxGeometry relative="1" as="geometry" />
        </mxCell>
        <mxCell id="bsJ_sNEBP9lTQ6pW_iyW-48" value="&lt;font style=&quot;font-size: 20px;&quot;&gt;业务员&lt;/font&gt;" style="image;aspect=fixed;perimeter=ellipsePerimeter;html=1;align=center;shadow=0;dashed=0;fontColor=#4277BB;labelBackgroundColor=default;fontSize=12;spacingTop=3;image=img/lib/ibm/applications/api_developer_portal.svg;" parent="1" vertex="1">
          <mxGeometry x="140" y="-290" width="60" height="60" as="geometry" />
        </mxCell>
        <mxCell id="bsJ_sNEBP9lTQ6pW_iyW-53" style="edgeStyle=orthogonalEdgeStyle;rounded=0;orthogonalLoop=1;jettySize=auto;html=1;" parent="1" source="bsJ_sNEBP9lTQ6pW_iyW-50" target="bsJ_sNEBP9lTQ6pW_iyW-28" edge="1">
          <mxGeometry relative="1" as="geometry" />
        </mxCell>
        <mxCell id="bsJ_sNEBP9lTQ6pW_iyW-50" value="&lt;font style=&quot;font-size: 20px;&quot;&gt;公网防火墙&lt;/font&gt;" style="image;aspect=fixed;perimeter=ellipsePerimeter;html=1;align=center;shadow=0;dashed=0;fontColor=#4277BB;labelBackgroundColor=default;fontSize=12;spacingTop=3;image=img/lib/ibm/security/firewall.svg;" parent="1" vertex="1">
          <mxGeometry x="140" y="-160" width="60" height="60" as="geometry" />
        </mxCell>
        <mxCell id="CX1JSErlSpLftbo7QJSL-4" value="通州服务集群" style="shape=mxgraph.ibm.box;prType=cloud;fontStyle=0;verticalAlign=top;align=left;spacingLeft=32;spacingTop=4;fillColor=none;rounded=0;whiteSpace=wrap;html=1;strokeColor=#4376BB;strokeWidth=3;dashed=0;container=1;spacing=-4;collapsible=0;expand=0;recursiveResize=0;" parent="1" vertex="1">
          <mxGeometry x="485" y="130" width="290" height="120" as="geometry" />
        </mxCell>
        <mxCell id="CX1JSErlSpLftbo7QJSL-5" value="微服务网关" style="image;aspect=fixed;perimeter=ellipsePerimeter;html=1;align=center;shadow=0;dashed=0;fontColor=#4277BB;labelBackgroundColor=default;fontSize=12;spacingTop=3;image=img/lib/ibm/applications/saas_applications.svg;" parent="CX1JSErlSpLftbo7QJSL-4" vertex="1">
          <mxGeometry x="150" y="30" width="60" height="60" as="geometry" />
        </mxCell>
        <mxCell id="CX1JSErlSpLftbo7QJSL-7" value="" style="edgeStyle=orthogonalEdgeStyle;rounded=0;orthogonalLoop=1;jettySize=auto;html=1;" parent="CX1JSErlSpLftbo7QJSL-4" source="CX1JSErlSpLftbo7QJSL-6" target="CX1JSErlSpLftbo7QJSL-5" edge="1">
          <mxGeometry relative="1" as="geometry" />
        </mxCell>
        <mxCell id="CX1JSErlSpLftbo7QJSL-8" value="代理" style="edgeLabel;html=1;align=center;verticalAlign=middle;resizable=0;points=[];" parent="CX1JSErlSpLftbo7QJSL-7" vertex="1" connectable="0">
          <mxGeometry x="-0.208" y="4" relative="1" as="geometry">
            <mxPoint as="offset" />
          </mxGeometry>
        </mxCell>
        <mxCell id="CX1JSErlSpLftbo7QJSL-6" value="网上出单前端服务" style="image;aspect=fixed;perimeter=ellipsePerimeter;html=1;align=center;shadow=0;dashed=0;fontColor=#4277BB;labelBackgroundColor=default;fontSize=12;spacingTop=3;image=img/lib/ibm/applications/saas_applications.svg;" parent="CX1JSErlSpLftbo7QJSL-4" vertex="1">
          <mxGeometry x="40" y="30" width="60" height="60" as="geometry" />
        </mxCell>
        <mxCell id="CX1JSErlSpLftbo7QJSL-12" style="edgeStyle=orthogonalEdgeStyle;rounded=0;orthogonalLoop=1;jettySize=auto;html=1;" parent="1" source="CX1JSErlSpLftbo7QJSL-1" target="bsJ_sNEBP9lTQ6pW_iyW-35" edge="1">
          <mxGeometry relative="1" as="geometry">
            <Array as="points">
              <mxPoint x="280" y="390" />
              <mxPoint x="270" y="390" />
            </Array>
          </mxGeometry>
        </mxCell>
        <mxCell id="CX1JSErlSpLftbo7QJSL-14" value="路由" style="edgeLabel;html=1;align=center;verticalAlign=middle;resizable=0;points=[];" parent="CX1JSErlSpLftbo7QJSL-12" vertex="1" connectable="0">
          <mxGeometry x="-0.3236" y="-1" relative="1" as="geometry">
            <mxPoint as="offset" />
          </mxGeometry>
        </mxCell>
        <mxCell id="CX1JSErlSpLftbo7QJSL-13" style="edgeStyle=orthogonalEdgeStyle;rounded=0;orthogonalLoop=1;jettySize=auto;html=1;entryX=0.052;entryY=0.068;entryDx=0;entryDy=0;entryPerimeter=0;" parent="1" source="CX1JSErlSpLftbo7QJSL-5" target="bsJ_sNEBP9lTQ6pW_iyW-41" edge="1">
          <mxGeometry relative="1" as="geometry" />
        </mxCell>
        <mxCell id="CX1JSErlSpLftbo7QJSL-15" value="路由" style="edgeLabel;html=1;align=center;verticalAlign=middle;resizable=0;points=[];" parent="CX1JSErlSpLftbo7QJSL-13" vertex="1" connectable="0">
          <mxGeometry x="-0.411" y="-3" relative="1" as="geometry">
            <mxPoint as="offset" />
          </mxGeometry>
        </mxCell>
      </root>
    </mxGraphModel>
  </diagram>
</mxfile>
